<?xml version="1.0" standalone="no"?><!DOCTYPE svg PUBLIC "-//W3C//DTD SVG 1.1//EN" "http://www.w3.org/Graphics/SVG/1.1/DTD/svg11.dtd"><svg t="1721016795090" class="icon" viewBox="0 0 1024 1024" version="1.1" xmlns="http://www.w3.org/2000/svg" p-id="10361" width="200" height="200" xmlns:xlink="http://www.w3.org/1999/xlink"><path d="M601.406 509.652c0-70.088-75.892-114.13-136.28-79.086-60.384 35.042-60.384 123.128 0 158.172 60.388 35.042 136.28-9 136.28-79.086z m208.02-168.34c60.12-287.38-72.146-377.564-297-169.544-211.628-198.4-362.332-135.874-298.204 168.34-295.72 89.152-276.128 256.972 2.406 342.694-63.728 280.166 55.312 382.372 295.798 170.744C745.696 1062.768 869.5 964.81 805.818 681.6c303.814-103.008 276.56-252.108 3.608-340.286z m-40.882-10.822c-47.662-10.752-93.78-18.578-140.686-22.848-24.712-36.134-53.496-72.23-86.574-105.812 180.276-172.92 286.526-118.89 227.26 128.66zM303.204 564.96c17.834 38.078 41.282 72.948 58.918 102.208-28.718-2.938-59.654-7.398-92.588-13.228 10.554-29.538 21.788-59.2 33.668-88.98z m-2.406-103.408c-13.12-31.492-25.09-61.886-34.87-90.182 33.996-7.048 67.312-13.446 96.194-15.632-21.496 33.768-41.914 69.074-61.324 105.814z m25.25 52.906c29.404-58.886 60.508-114.782 94.992-164.732 61.188-3.52 121.726-3.208 181.568 1.202 33.562 46.766 64.886 102.66 94.992 163.53-22.528 46.556-54.518 100.208-91.384 157.52-61.556 4.66-124.672 4.016-188.782 0-32.494-49.78-63.01-102.214-91.386-157.52z m394.398 50.502c11.676 28.334 22.466 57.212 32.466 86.576a908.958 908.958 0 0 1-91.386 14.43c20.59-31.9 40.12-65.77 58.92-101.006z m-58.92-209.22c32.786 4.486 64.458 10.09 94.992 16.832a967.366 967.366 0 0 1-34.87 88.98c-18.612-36.708-38.594-72.038-60.12-105.814z m-92.586-52.908c-37.45-1.47-75.546-1.422-114.232 0 16.936-22.274 35.812-45.54 56.516-69.74 20.174 21.776 39.29 45.216 57.716 69.74z m-86.576-101.004c-33.078 33.582-61.86 68.476-86.574 104.61-46.906 4.27-94.226 12.096-141.886 22.846-56.516-251.308 48.186-300.378 228.46-127.456zM227.45 643.12c-250.506-75.352-238.482-192.788-2.406-262.128 14.442 43.82 31.924 88.326 51.706 131.064-19.22 44.2-36.238 89.594-49.3 131.064z m31.262 50.502c42.486 10.422 87.51 15.424 134.674 20.442 28.376 40.048 57.764 77.28 88.98 109.42-183.572 175.956-285.906 112.028-223.654-129.86z m252.512 99.802c-21.754-22.526-42.064-48.05-61.324-75.752 42.934 0.904 84.4 1.004 123.85 0a643.718 643.718 0 0 1-62.526 75.752z m30.06 30.06c33.494-36.39 63.02-73.28 88.98-110.622 44.308-3.26 89.2-10.068 134.672-20.44 62.816 257.466-51.24 295.484-223.652 131.064z m253.712-182.768c-12.88-41.47-29.144-84.46-48.096-128.66a1222.04 1222.04 0 0 0 50.5-129.862c230.468 69.74 248.904 181.166-2.404 258.522z" fill="#26A2C1" p-id="10362"></path></svg>